<svg height="316.227766" viewBox="0 0 171.3 171.3" width="316.227766" xmlns="http://www.w3.org/2000/svg"><g transform="matrix(1.3333 0 0 -1.3333 -739.98 493.68)"><path d="m683.13 306.02c0-35.293-28.611-63.904-63.904-63.904s-63.904 28.611-63.904 63.904 28.611 63.904 63.904 63.904 63.904-28.611 63.904-63.904" fill="#fff"/><g fill="none" stroke="#231f20" stroke-miterlimit="10"><path d="m683.13 306.02c0-35.293-28.611-63.904-63.904-63.904s-63.904 28.611-63.904 63.904 28.611 63.904 63.904 63.904 63.904-28.611 63.904-63.904z" stroke-width=".229"/><path d="m683.13 306.02c0-35.293-28.611-63.904-63.904-63.904s-63.904 28.611-63.904 63.904 28.611 63.904 63.904 63.904 63.904-28.611 63.904-63.904z" stroke-width=".669"/><path d="m663.93 306.02c0-24.964-20.237-45.202-45.202-45.202-24.964 0-45.201 20.238-45.201 45.202s20.237 45.202 45.201 45.202c24.965 0 45.202-20.238 45.202-45.202z" stroke-width="2.168"/></g><g fill="#231f20"><path d="m570.04 294.27c-.028.462-.073.839-.136 1.132-.182.851-.55 1.462-1.104 1.834s-1.221.474-1.999.308c-.519-.111-.926-.306-1.221-.585s-.481-.621-.557-1.027c-.077-.406-.028-1.018.146-1.835.052-.245.119-.52.199-.824l2.559.546.907.201c.324.085.573.145.746.182.129.028.283.05.46.068m-5.285-1.128c-.037.243-.077.466-.12.668-.204.956-.52 1.605-.947 1.946s-.96.443-1.6.307c-.552-.118-.939-.381-1.161-.79-.222-.41-.252-.994-.09-1.753.072-.337.182-.696.328-1.076.596.082 1.487.249 2.674.503zm-.307 2.437c-.153 1.048-.073 1.844.241 2.389.314.544.834.894 1.561 1.049.918.196 1.793-.018 2.623-.643.83-.624 1.371-1.528 1.623-2.71l.105-.573c.08-.486.156-.894.226-1.226.052-.24.125-.534.219-.88l.149-.594-.324-.07c-.208.268-.356.42-.445.46-.089.038-.223.044-.403.016-.579-.089-1.234-.211-1.965-.367l-4.492-.959c-1.201-.257-1.872-.445-2.013-.565-.164-.146-.203-.423-.116-.832l.105-.49-.455-.097-.127.598-.117.669c-.057.35-.106.623-.148.82-.065.303-.208.898-.428 1.786l-.253 1.047c-.176.826-.163 1.475.039 1.946.257.592.721.96 1.391 1.103.551.118 1.072.039 1.564-.235.493-.275.973-.822 1.44-1.642"/><path d="m565.26 303.49-.029 3.714-4.415-1.89zm.573 3.995.034-4.265 1.19-.49c.789-.323 1.272-.484 1.449-.483.114.001.194.032.243.094s.087.218.114.469l.076.709.464.003c-.031-.472-.044-1.003-.039-1.592.006-.708.028-1.33.067-1.865l-.465-.004-.009.221c-.013.344-.05.566-.112.667-.063.1-.215.205-.456.317-.711.343-1.478.693-2.302 1.051l-4.609 1.991c-1.222.531-2.11.892-2.662 1.085l-.004.501 8.648 3.799c.588.255.941.425 1.061.51.12.084.205.18.256.289.051.108.084.352.101.731l.464.003c-.029-.639-.041-1.248-.037-1.828.005-.541.027-1.261.069-2.16l-.465-.004-.05.73c-.021.26-.05.415-.084.464-.055.073-.124.109-.208.109-.088-.001-.318-.077-.691-.227z"/><path d="m565.64 319.08c.784.313 1.704.712 2.76 1.199l2.108.964c.364.173.576.296.638.367s.103.15.123.237l.043.186.453-.105c-.126-.39-.223-.733-.292-1.03-.063-.272-.113-.564-.15-.873l-4.022-1.746c-.742-.328-1.477-.692-2.206-1.094l-.228.129c.089.272.148.475.179.609.186.8.125 1.474-.182 2.022-.307.547-.805.902-1.494 1.061-.618.144-1.145.064-1.581-.239-.435-.302-.737-.815-.905-1.538-.117-.503-.14-1.03-.071-1.58.748-.234 1.555-.452 2.422-.653l3.469-.804c1.69-.392 2.636-.569 2.84-.53.203.039.356.281.459.726l.13.56.453-.105c-.218-.787-.388-1.441-.508-1.963-.096-.412-.252-1.16-.468-2.245l-.453.105.126.538c.095.412.062.677-.1.795s-1.098.376-2.807.772l-3.454.801c-1.485.344-2.326.492-2.523.445-.198-.048-.354-.315-.467-.804l-.09-.388-.452.105c.24.883.414 1.559.523 2.028.073.316.167.774.28 1.373.136.695.239 1.193.309 1.495.192.828.425 1.437.7 1.825.274.388.602.655.984.801s.802.166 1.262.059c.675-.157 1.215-.538 1.62-1.143.404-.606.595-1.394.572-2.362"/><path d="m572.4 325.06c.248.39.433.722.555.996.353.795.415 1.506.185 2.132-.23.627-.709 1.102-1.437 1.425-.485.215-.929.296-1.331.244-.403-.052-.754-.22-1.055-.504-.301-.283-.621-.807-.96-1.57-.101-.229-.209-.491-.323-.784l2.392-1.062.852-.371c.311-.122.548-.218.709-.29.122-.054.259-.126.413-.216m-4.939 2.193c.113.219.212.422.295.611.397.894.523 1.605.378 2.131-.145.528-.516.924-1.114 1.189-.516.229-.985.243-1.404.043-.42-.201-.788-.656-1.103-1.366-.14-.314-.262-.669-.367-1.063.53-.284 1.35-.672 2.459-1.165zm1.184 2.153c.492.938 1.025 1.534 1.599 1.791.574.255 1.2.233 1.879-.068.859-.382 1.44-1.069 1.745-2.062.304-.993.211-2.042-.28-3.147l-.252-.526c-.22-.44-.399-.814-.537-1.124-.1-.225-.213-.505-.341-.841l-.228-.568-.303.134c-.011.339-.041.549-.09.633s-.155.167-.317.25c-.521.268-1.122.555-1.805.858l-4.198 1.864c-1.123.498-1.777.741-1.961.726-.219-.022-.413-.223-.583-.605l-.203-.458-.425.189.249.559.299.609c.159.317.279.567.361.751.126.283.36.849.703 1.697l.412.995c.343.772.735 1.289 1.175 1.551.556.328 1.147.354 1.774.075.514-.228.889-.598 1.127-1.109.237-.511.304-1.236.2-2.174"/><path d="m573.02 335.44 1.499-1.014.866-.577c.539-.364.936-.624 1.194-.78.447.565.901 1.188 1.362 1.869.308.457.547.854.716 1.191.111.217.201.464.272.744-.29.344-.668.751-1.133 1.22l.272.403c.82-.714 1.38-1.172 1.677-1.374l.284-.174c-.276-.496-.566-.97-.872-1.422l-.667-.946c-.744-1.039-1.284-1.808-1.62-2.304-.322-.476-.736-1.119-1.242-1.928l-.385.26.129.189c.239.354.355.6.348.739-.007.138-.129.31-.365.513-.235.205-.791.602-1.667 1.195l-3.353 2.267c-.549.371-1.008.663-1.376.873s-.596.323-.684.338c-.088.014-.169.006-.244-.026-.076-.032-.226-.186-.453-.46l-.367-.437-.385.26.446.66.459.633c.26.353.453.623.579.81l1.551 2.369.744 1.117c.252.381.525.754.819 1.119.379-.482.95-.993 1.714-1.533l-.281-.415c-.448.303-.835.532-1.163.689-.504-.36-.993-.89-1.466-1.59-.378-.558-.748-1.158-1.112-1.802.384-.254.764-.517 1.137-.787l.931-.647 1.237-.837c.302.383.557.73.766 1.039.655.969.993 1.541 1.012 1.715.02.173-.146.379-.496.615l-.397.269.281.415c.596-.444 1.077-.79 1.443-1.038.387-.262.853-.556 1.397-.882l-.281-.416-.354.24c-.391.264-.682.349-.872.256-.191-.094-.599-.602-1.224-1.527-.231-.341-.457-.705-.676-1.091"/><path d="m580.64 345.24c.83-.149 1.823-.296 2.977-.442l2.299-.296c.4-.045.645-.054.735-.026s.167.073.229.136l.136.135.328-.328c-.312-.264-.576-.504-.792-.72-.198-.198-.394-.419-.588-.662l-4.338.645c-.803.114-1.62.194-2.451.239l-.125.229c.219.184.377.325.475.423.58.58.885 1.184.914 1.811.029.628-.207 1.191-.707 1.692-.449.448-.938.659-1.468.633-.53-.027-1.058-.302-1.582-.827-.365-.366-.664-.8-.896-1.304.511-.594 1.081-1.205 1.711-1.834l2.519-2.517c1.227-1.227 1.937-1.877 2.13-1.952s.451.05.774.373l.406.407.329-.329c-.601-.552-1.091-1.018-1.47-1.397-.299-.299-.827-.852-1.584-1.658l-.328.328.39.391c.299.299.411.541.336.727s-.733.899-1.974 2.14l-2.508 2.506c-1.078 1.077-1.713 1.648-1.906 1.712s-.467-.081-.821-.435l-.281-.282-.329.328c.671.622 1.176 1.104 1.517 1.445.229.229.55.568.963 1.017.483.518.834.886 1.053 1.105.601.602 1.121.995 1.558 1.179.438.184.858.237 1.259.159.402-.078.769-.283 1.103-.617.49-.49.747-1.099.77-1.827s-.232-1.497-.763-2.307"/><path d="m588.13 356.96c.172-.501.49-1.105.954-1.811l-.422-.284-.329.489c-.215.317-.403.505-.566.561-.162.057-.467.027-.914-.087-.447-.115-.871-.307-1.27-.576-.652-.44-1.054-.95-1.204-1.531-.151-.581-.052-1.13.296-1.647.22-.325.485-.554.795-.685.311-.131.63-.161.959-.09s.94.349 1.833.836c.894.485 1.534.759 1.92.824.387.064.769.008 1.147-.17.378-.179.704-.472.979-.879.553-.82.686-1.756.4-2.809-.287-1.053-1-1.964-2.141-2.733-.392-.264-.813-.49-1.263-.678-.451-.189-.931-.341-1.439-.459-.256.539-.645 1.19-1.165 1.954l.416.28.206-.306c.266-.395.451-.626.555-.692.104-.067.267-.102.49-.106.331-.008.68.051 1.046.176s.728.309 1.087.551c.77.519 1.243 1.101 1.418 1.747.175.645.075 1.248-.302 1.806-.219.326-.477.554-.772.684s-.608.164-.939.1c-.331-.063-.862-.299-1.593-.709-.971-.548-1.671-.859-2.1-.935s-.844-.019-1.244.17c-.401.19-.758.519-1.074.987-.536.795-.687 1.639-.453 2.532s.858 1.681 1.873 2.365c.408.275.846.506 1.314.695.469.188.97.331 1.502.43"/><path d="m594.86 355.17.793-1.901c.136-.328.308-.707.514-1.138.285-.607.45-.939.496-.997.046-.059.14-.098.281-.119.142-.021.34.022.594.128l.463.193.179-.429c-.604-.214-1.179-.436-1.728-.665-.531-.221-1.284-.554-2.26-.998l-.179.428.423.177c.476.198.723.396.742.593s-.246.953-.794 2.269l-1.712 4.103c-.495 1.188-.821 1.845-.977 1.969-.155.124-.442.099-.859-.075l-.504-.21-.178.429c.761.28 1.464.555 2.109.823.648.271 1.274.551 1.878.84l.179-.429-.293-.122c-.421-.176-.668-.319-.74-.428-.071-.11-.086-.247-.044-.411.068-.265.303-.88.705-1.843l.648-1.554c.821.305 1.855.717 3.102 1.238 1.057.441 1.91.815 2.559 1.123l-.554 1.329c-.324.777-.624 1.418-.898 1.923-.096.178-.213.287-.351.325-.139.039-.369-.009-.691-.144l-.49-.204-.179.429c.707.257 1.372.516 1.993.775.672.28 1.364.587 2.076.922l.179-.429-.517-.216c-.35-.145-.557-.277-.622-.395s-.065-.284 0-.499c.066-.215.327-.869.783-1.962l1.569-3.763c.581-1.393.945-2.153 1.091-2.281.147-.128.429-.105.846.069l.531.222.179-.429c-.639-.229-1.293-.483-1.959-.761-.762-.318-1.466-.63-2.11-.936l-.179.428.469.196c.345.144.551.276.618.397.066.122.065.296-.003.523-.145.489-.405 1.181-.778 2.077l-.739 1.771c-.653-.235-1.476-.559-2.469-.974-1.416-.59-2.48-1.053-3.192-1.387"/><path d="m605.83 359.84c.179-1.097.524-2.02 1.033-2.771.51-.751 1.113-1.277 1.81-1.579.698-.301 1.452-.386 2.263-.253.752.123 1.382.403 1.889.84.506.436.865 1.023 1.076 1.76s.236 1.595.076 2.575c-.169 1.028-.491 1.878-.968 2.55-.476.671-1.055 1.14-1.737 1.407-.681.267-1.447.331-2.297.192-.777-.127-1.42-.4-1.93-.817s-.874-.966-1.091-1.646c-.218-.681-.259-1.434-.124-2.258m-1.379-.838c-.262 1.595.042 2.965.912 4.108.869 1.144 2.16 1.856 3.874 2.136 1.679.275 3.07.038 4.172-.71s1.775-1.872 2.021-3.371c.264-1.615-.068-3.057-.997-4.324-.928-1.268-2.235-2.04-3.919-2.316-1.053-.172-1.996-.107-2.828.195s-1.536.827-2.112 1.574-.95 1.65-1.123 2.708"/><path d="m619.86 365.06c-.063-.706-.111-1.459-.144-2.259l-.172-4.207c-.06-1.478-.05-2.307.031-2.488.082-.18.367-.28.859-.301l.508-.02-.019-.464c-.868.07-1.552.115-2.053.135-.442.018-1.226.033-2.352.045l.019.464.663-.027c.309-.013.51.017.601.09.092.072.154.224.188.457.035.232.091.944.169 2.136l.161 3.934.04 1.526c.016.634-.036 1.024-.155 1.172-.119.147-.422.231-.909.251l-.368.015.019.464c.613-.049 1.391-.094 2.334-.132.555-.023 1.172-.033 1.851-.031.448.001.787-.003 1.018-.013 1.188-.048 2.043-.3 2.566-.754.518-.454.761-1.049.731-1.786-.022-.535-.198-1.043-.527-1.524-.33-.481-.784-.86-1.363-1.136-.58-.276-1.191-.401-1.834-.375-.295.012-.662.074-1.1.185l-.125.558c.428-.125.787-.194 1.077-.206.677-.028 1.224.155 1.638.549.415.394.636.947.665 1.659.029.688-.162 1.233-.571 1.636s-1.033.621-1.873.656c-.476.019-1.001-.051-1.573-.209"/><path d="m633.11 358.73-.654-1.954c-.113-.336-.233-.734-.361-1.195-.185-.644-.279-1.003-.283-1.077s.041-.165.134-.274.27-.208.531-.295l.475-.159-.147-.44c-.595.235-1.175.447-1.739.636-.545.182-1.331.427-2.358.735l.147.441.434-.146c.489-.163.806-.177.949-.042.144.136.443.88.895 2.232l1.411 4.215c.409 1.222.596 1.93.56 2.126-.035.196-.267.365-.696.509l-.518.173.148.441c.758-.29 1.468-.546 2.13-.768.666-.223 1.322-.424 1.967-.604l-.148-.44-.3.1c-.434.146-.714.2-.84.165-.125-.036-.227-.129-.303-.28-.124-.245-.351-.862-.682-1.852l-.534-1.597c.818-.31 1.869-.679 3.15-1.109 1.086-.363 1.975-.642 2.666-.838l.457 1.366c.268.799.464 1.478.589 2.039.046.197.029.356-.05.476s-.284.235-.615.346l-.504.168.148.441c.702-.272 1.373-.514 2.011-.728.69-.231 1.413-.455 2.17-.672l-.148-.44-.531.178c-.359.12-.602.157-.728.111-.127-.045-.237-.171-.328-.376-.092-.205-.326-.869-.702-1.992l-1.294-3.866c-.479-1.431-.706-2.243-.679-2.436.026-.193.253-.361.682-.504l.545-.183-.147-.44c-.632.248-1.291.486-1.976.716-.783.262-1.518.49-2.205.683l.148.44.482-.161c.354-.119.596-.154.726-.107.13.048.244.179.342.396.213.463.473 1.155.78 2.075l.61 1.82c-.647.253-1.48.55-2.501.892-1.454.486-2.559.838-3.316 1.055"/><path d="m646.16 351.97 3.112-2.028.863 4.724zm3.013-2.685-3.573 2.328-1.067-.721c-.705-.479-1.106-.793-1.203-.941-.061-.095-.08-.18-.055-.255.024-.074.134-.192.328-.354l.548-.454-.253-.39c-.377.287-.812.591-1.306.913-.593.387-1.124.711-1.591.975l.253.389.19-.114c.293-.18.499-.272.617-.275.118-.004.29.065.516.205.679.402 1.394.848 2.147 1.337l4.206 2.742c1.119.726 1.911 1.266 2.376 1.62l.42-.273-1.611-9.307c-.112-.631-.166-1.02-.162-1.167.004-.146.038-.271.1-.373.063-.102.247-.265.553-.488l-.253-.389c-.517.378-1.018.725-1.504 1.041-.453.295-1.065.674-1.838 1.136l.254.389.635-.361c.229-.126.374-.188.434-.186.091.005.159.043.205.113.048.074.113.308.193.701z"/><path d="m658.85 343.16c-.169-.827-.34-1.815-.514-2.965l-.351-2.292c-.055-.398-.07-.643-.044-.734s.069-.168.13-.232l.132-.139-.336-.321c-.256.319-.49.589-.7.81-.193.202-.409.404-.648.604l.749 4.321c.134.8.233 1.615.298 2.444l.232.119c.179-.222.316-.384.411-.483.567-.595 1.163-.914 1.79-.959.626-.044 1.195.178 1.707.667.459.437.682.921.669 1.452-.014.53-.277 1.064-.789 1.601-.356.374-.783.683-1.282.927-.606-.496-1.231-1.052-1.875-1.665l-2.577-2.458c-1.255-1.197-1.923-1.891-2.002-2.083-.079-.191.039-.452.354-.782l.397-.416-.336-.321c-.538.614-.992 1.115-1.362 1.503-.292.306-.832.847-1.62 1.623l.337.321.381-.4c.292-.306.532-.424.719-.353.188.07.917.71 2.186 1.921l2.567 2.448c1.102 1.051 1.688 1.673 1.757 1.864s-.07.468-.416.831l-.274.288.336.321c.606-.686 1.075-1.202 1.407-1.551.224-.235.555-.564.994-.988.506-.496.866-.855 1.08-1.08.587-.615.967-1.144 1.141-1.586.173-.442.216-.863.129-1.262-.088-.4-.303-.762-.644-1.088-.502-.478-1.117-.72-1.845-.725-.729-.006-1.491.267-2.288.818"/><path d="m671.65 330.65-5.052-.281c-1.896-.107-3.53-.239-4.905-.395l-.142.258c.296.371 1.028 1.37 2.199 2.998l3.515 4.953-4.993-2.751c-1.162-.641-1.796-1.051-1.902-1.23-.106-.18-.025-.512.242-.997l.132-.24-.407-.224c-.301.616-.554 1.112-.76 1.487-.15.272-.464.805-.941 1.599l.407.225.231-.42c.157-.284.302-.451.436-.501.134-.049.315-.026.542.072.633.276 1.299.606 1.996.99l3.654 2.014c.883.486 1.456.827 1.718 1.023.137.097.214.222.231.375s-.064.392-.244.719l-.189.343.407.224c.382-.766.627-1.245.734-1.44.135-.245.342-.585.622-1.021-.872-1.16-1.817-2.465-2.838-3.914l-2.558-3.626 4.102.213c1.436.073 3.146.195 5.129.367.267-.555.46-.942.581-1.162.14-.253.408-.704.803-1.35l-.407-.224-.232.422c-.21.381-.404.577-.582.589-.177.012-.673-.206-1.486-.654l-4.721-2.601c-1.05-.579-1.628-.956-1.735-1.13-.106-.174-.047-.464.178-.871l.204-.37-.407-.224c-.3.615-.6 1.196-.901 1.742-.333.603-.695 1.225-1.088 1.867l.407.224.234-.426c.188-.34.375-.505.563-.494s.845.328 1.973.949z"/><path d="m671.13 323.8c-1.075-.279-1.964-.706-2.665-1.282-.701-.575-1.17-1.224-1.407-1.946s-.252-1.481-.046-2.276c.192-.738.528-1.34 1.009-1.805s1.098-.768 1.851-.911 1.61-.09 2.571.159c1.009.262 1.825.661 2.451 1.196.625.536 1.04 1.155 1.243 1.859.204.703.197 1.471-.019 2.305-.197.762-.527 1.377-.989 1.847s-1.042.782-1.739.937c-.698.154-1.451.127-2.26-.083m-.961 1.297c1.565.406 2.957.228 4.175-.533s2.045-1.983 2.481-3.663c.427-1.648.318-3.054-.327-4.219-.645-1.166-1.702-1.939-3.172-2.321-1.585-.41-3.05-.211-4.398.598-1.347.809-2.234 2.04-2.663 3.692-.268 1.033-.289 1.978-.064 2.834.225.855.683 1.604 1.375 2.246.691.642 1.556 1.097 2.593 1.366"/><path d="m676.82 310.91-5.095-.094c-1.16-.021-1.969-.058-2.425-.111-.348-.041-.56-.103-.635-.185-.075-.084-.126-.32-.153-.712l-.028-.474-.464-.009c.024.538.033 1.023.025 1.456-.006.301-.036.99-.09 2.067l.465.009.009-.531c.006-.319.054-.527.144-.624.091-.096.266-.154.527-.174.542-.044 1.277-.058 2.206-.041l3.663.067c.688.013 1.369.033 2.042.06.284.015.479.057.584.125.104.068.197.167.278.296.081.13.12.31.116.541l-.009.457.465.008c-.023-.625-.032-1.101-.026-1.431.007-.353.031-.741.073-1.164-.585-.497-1.156-.966-1.71-1.406-.555-.44-1.113-.897-1.675-1.369l-3.049-2.578c-1.095-.929-1.854-1.6-2.279-2.01l4.732.086c1.981.037 3.063.092 3.245.167.183.074.295.361.335.857l.041.554.465.009c-.02-.792-.026-1.406-.018-1.844.008-.457.036-1.046.084-1.768l-.464-.009-.011.568c-.008.457-.165.717-.471.78-.203.041-1.279.043-3.23.007l-3.325-.061c-.894-.016-1.962-.075-3.204-.176.091.67.159 1.059.204 1.168.044.109.12.214.226.314.595.557 1.255 1.141 1.981 1.755z"/><path d="m672.09 294.76c.384-.384 1.061-1.006 2.032-1.865l2.543-2.24-.228-1.12-.181.037c-.541.722-1.39 1.644-2.548 2.767s-1.946 1.815-2.365 2.076c-.147.09-.547.202-1.201.335-.871.177-1.565.295-2.083.356-.28.026-.455.01-.525-.048-.069-.059-.166-.296-.29-.712l-.17-.538-.455.093c.204.833.355 1.485.451 1.958l.423 2.341.455-.093-.125-.617c-.084-.411-.05-.675.101-.792.152-.116.903-.312 2.254-.586.394-.081.827-.156 1.298-.227 1.266.39 2.369.762 3.308 1.118s1.637.675 2.096.959c.251.154.426.298.523.431s.181.373.252.72l.455-.093c-.002-.205-.004-.608-.005-1.21l-.001-.594c-.127-.205-.267-.362-.419-.472-.276-.194-.868-.458-1.779-.789-.698-.254-1.971-.653-3.816-1.195"/><path d="m593.05 263.53c-.476-.394-1.004-.989-1.584-1.787l-.484.343.398.561c.259.365.386.648.38.849-.005.2-.162.521-.472.962-.31.44-.694.823-1.152 1.148-.749.531-1.471.759-2.167.684-.697-.075-1.255-.409-1.675-1.002-.265-.373-.405-.757-.42-1.15s.083-.754.296-1.084c.213-.329.769-.881 1.668-1.655.897-.777 1.461-1.363 1.691-1.758.229-.395.324-.835.286-1.321-.039-.486-.224-.963-.556-1.431-.667-.941-1.634-1.472-2.901-1.593-1.267-.122-2.555.282-3.865 1.21-.449.319-.869.685-1.261 1.1-.391.414-.755.874-1.093 1.381.483.501 1.033 1.194 1.652 2.076l.477-.338-.249-.351c-.322-.454-.497-.751-.526-.892-.03-.14-.001-.333.086-.577.127-.365.335-.721.623-1.069.287-.348.637-.668 1.049-.96.884-.627 1.714-.903 2.492-.828.776.075 1.392.432 1.846 1.073.265.375.409.75.429 1.125.02.376-.072.731-.278 1.067-.205.335-.682.817-1.431 1.447-.997.833-1.625 1.468-1.885 1.906-.26.437-.368.913-.327 1.428.042.515.254 1.041.635 1.579.647.913 1.505 1.425 2.576 1.537 1.071.113 2.189-.244 3.354-1.07.467-.331.901-.714 1.3-1.148s.761-.921 1.088-1.462"/><path d="m593.1 257.86c-.504-1.194-.738-2.319-.702-3.377s.305-1.953.806-2.684 1.193-1.284 2.076-1.657c.82-.345 1.615-.461 2.387-.344.771.115 1.491.472 2.157 1.068.666.597 1.224 1.428 1.675 2.495.473 1.12.683 2.16.63 3.119s-.333 1.782-.841 2.469c-.507.687-1.223 1.227-2.148 1.617-.846.358-1.651.489-2.413.394-.763-.095-1.464-.411-2.101-.948-.638-.537-1.147-1.254-1.526-2.152m-1.883.03c.734 1.737 1.885 2.901 3.455 3.489 1.569.589 3.286.489 5.152-.299 1.829-.772 3.054-1.87 3.677-3.294s.59-2.952-.099-4.584c-.743-1.759-1.967-2.976-3.672-3.65-1.705-.675-3.474-.624-5.309.15-1.147.485-2.037 1.134-2.671 1.95-.633.815-1.002 1.771-1.106 2.867-.104 1.095.087 2.219.573 3.371"/><path d="m615.45 253.87.17 1.523c-.451.414-.94.746-1.466.997-.527.252-1.09.425-1.69.52-1.53.24-2.828-.031-3.895-.815s-1.723-1.954-1.968-3.512c-.173-1.093-.093-2.104.24-3.033.332-.929.89-1.711 1.672-2.345.783-.634 1.653-1.026 2.61-1.178.759-.119 1.523-.15 2.293-.091.575.043 1.176.227 1.802.552l.152-.198c-.16-.242-.312-.488-.456-.738-.715-.224-1.42-.367-2.118-.428s-1.386-.039-2.066.068c-1.394.22-2.576.682-3.548 1.387-.971.705-1.665 1.576-2.082 2.614s-.532 2.155-.343 3.35c.188 1.195.643 2.219 1.364 3.072.72.853 1.644 1.456 2.771 1.81 1.127.353 2.452.41 3.976.17.798-.126 1.712-.404 2.742-.833.512-.209.931-.371 1.255-.485-.35-.566-.632-1.398-.846-2.497z"/><path d="m618.59 245.35.541.021c.533.02.848.161.944.423s.102 1.499.018 3.711l-.111 2.913c-.087 2.292-.181 3.554-.282 3.785-.1.232-.38.339-.838.321l-.696-.026-.021.541c.954-.003 1.897.012 2.826.048.776.029 1.478.076 2.108.14l.02-.541-.665-.026c-.409-.015-.664-.074-.764-.175s-.151-.35-.153-.746c-.005-.614.022-1.707.082-3.277l.112-2.965c.085-2.229.181-3.455.287-3.677.107-.223.425-.324.955-.304l.57.022.021-.542c-.708.014-1.478.004-2.31-.027-.97-.037-1.845-.091-2.623-.161z"/><path d="m629.27 251.7.46-2.06.273-1.184c.166-.74.295-1.279.388-1.617.832.121 1.716.286 2.652.495.628.14 1.148.286 1.562.437.267.095.542.233.825.413.031.524.036 1.172.017 1.943l.554.124c.123-1.263.231-2.1.322-2.509l.102-.376c-.632-.199-1.258-.368-1.879-.507l-1.323-.269c-1.464-.286-2.537-.505-3.22-.658-.655-.146-1.521-.36-2.598-.641l-.118.528.261.058c.486.109.782.225.887.349.104.123.138.365.101.727-.036.362-.189 1.145-.458 2.348l-1.029 4.609c-.168.755-.325 1.369-.469 1.843-.144.473-.247.751-.31.834-.062.083-.138.141-.228.174-.089.032-.34.023-.751-.027l-.662-.077-.118.528.906.203.897.169c.503.092.882.166 1.14.224l3.212.769 1.526.351c.519.121 1.049.219 1.591.293-.064-.712.012-1.603.227-2.672l-.571-.128c-.137.616-.283 1.121-.435 1.516-.716.099-1.555.041-2.517-.175-.767-.171-1.563-.383-2.387-.638.123-.524.235-1.05.335-1.579l.271-1.294.38-1.701c.563.084 1.057.174 1.483.269 1.332.298 2.075.512 2.231.644.156.131.18.438.072.919l-.121.546.57.127c.15-.854.281-1.532.393-2.036.119-.532.278-1.154.479-1.867l-.571-.127-.109.486c-.12.537-.298.843-.535.916-.236.074-.99-.031-2.261-.315-.47-.105-.952-.233-1.447-.385"/><path d="m640.33 261.26c.303-.807.654-1.643 1.052-2.508l2.054-4.452c.764-1.655 1.227-2.549 1.388-2.679.161-.131.497-.079 1.008.157l.585.27.227-.492c-.938-.389-1.727-.731-2.368-1.026-.646-.298-1.413-.675-2.302-1.129l-.227.492.656.303c.343.158.547.307.609.446s.044.348-.052.625c-.229.634-.566 1.432-1.01 2.395l-2.057 4.46c-.406.88-.797 1.678-1.172 2.396l-.795-.367c-1.283-.592-1.975-.948-2.078-1.067-.102-.12-.08-.393.066-.818l.373-1.097-.491-.227-.414.937c-.173.375-.453.899-.839 1.573 2.828 1.261 4.49 2.005 4.984 2.233l4.294 2.048c.307-.926.642-1.801 1.003-2.626l-.492-.227-.55.987c-.195.34-.335.529-.423.568-.087.039-.234.02-.438-.056-.592-.222-1.253-.502-1.982-.838z"/><path d="m653.6 263.37c-.057.631-.2 1.694-.427 3.189l-.606 3.907 1.041.833.135-.167c-.055-1.052.017-2.513.215-4.384.199-1.871.389-3.08.569-3.627.064-.191.34-.59.826-1.197.648-.809 1.182-1.434 1.601-1.875.231-.234.399-.35.506-.349.105 0 .37.141.792.42l.553.355.339-.423c-.805-.593-1.427-1.066-1.867-1.418l-2.128-1.781-.338.423.573.46c.383.305.549.567.5.785-.048.217-.575.954-1.581 2.21-.293.366-.624.757-.994 1.172-1.425.597-2.692 1.087-3.799 1.47-1.107.382-1.972.618-2.594.707-.341.049-.605.05-.791.004-.187-.047-.441-.199-.763-.457l-.339.423c.155.182.457.542.909 1.08l.444.532c.267.089.509.125.728.109.392-.031 1.12-.238 2.183-.621.816-.294 2.254-.887 4.313-1.78"/><g stroke="#231f20" stroke-miterlimit="10" stroke-width=".747"><path d="m578.63 325.42h28.404"/><path d="m574.77 311.72h36.725"/><path d="m574.77 298.68h32.999"/><path d="m578.85 285.14h19.022"/><path d="m629.64 325.42h29.715"/><path d="m638.03 311.72h25.191"/><path d="m641.64 298.68h20.95"/><path d="m643.75 285.14h14.359"/></g><path d="m591.09 279.14h.464c.222 0 .374.033.454.099.081.066.121.154.121.263 0 .07-.019.133-.058.188-.039.056-.093.097-.162.125-.069.027-.197.04-.384.04h-.435zm-.382-1.334v2.37h.814c.278 0 .48-.022.605-.065.124-.044.223-.12.297-.229s.111-.225.111-.348c0-.173-.061-.324-.185-.453-.124-.128-.288-.2-.492-.215.084-.036.151-.077.201-.126.096-.093.213-.25.351-.47l.289-.464h-.467l-.211.373c-.165.294-.298.478-.4.552-.069.055-.172.082-.306.082h-.225v-1.007zm.966 3.057c-.309 0-.611-.08-.904-.238-.293-.159-.522-.385-.687-.68-.166-.295-.249-.602-.249-.922 0-.317.082-.621.244-.912.163-.291.39-.518.682-.681.292-.162.597-.243.914-.243s.622.081.914.243c.292.163.519.39.68.681.162.291.243.595.243.912 0 .32-.083.627-.247.922-.165.295-.394.521-.688.68-.294.158-.595.238-.902.238m0 .365c.37 0 .731-.095 1.083-.285.353-.19.627-.461.824-.815.196-.353.295-.721.295-1.105 0-.379-.097-.745-.291-1.095s-.465-.622-.815-.816c-.349-.194-.714-.29-1.096-.29-.381 0-.747.096-1.096.29-.35.194-.622.466-.817.816-.194.35-.291.716-.291 1.095 0 .384.098.752.296 1.105.198.354.472.625.825.815.352.19.713.285 1.083.285"/></g><path d="m591.09 279.14h.464c.222 0 .374.033.454.099.081.066.121.154.121.263 0 .07-.019.133-.058.188-.039.056-.093.097-.162.125-.069.027-.197.04-.384.04h-.435zm-.382-1.334v2.37h.814c.278 0 .48-.022.605-.065.124-.044.223-.12.297-.229s.111-.225.111-.348c0-.173-.061-.324-.185-.453-.124-.128-.288-.2-.492-.215.084-.036.151-.077.201-.126.096-.093.213-.25.351-.47l.289-.464h-.467l-.211.373c-.165.294-.298.478-.4.552-.069.055-.172.082-.306.082h-.225v-1.007zm.966 3.057c-.309 0-.611-.08-.904-.238-.293-.159-.522-.385-.687-.68-.166-.295-.249-.602-.249-.922 0-.317.082-.621.244-.912.163-.291.39-.518.682-.681.292-.162.597-.243.914-.243s.622.081.914.243c.292.163.519.39.68.681.162.291.243.595.243.912 0 .32-.083.627-.247.922-.165.295-.394.521-.688.68-.294.158-.595.238-.902.238zm0 .365c.37 0 .731-.095 1.083-.285.353-.19.627-.461.824-.815.196-.353.295-.721.295-1.105 0-.379-.097-.745-.291-1.095s-.465-.622-.815-.816c-.349-.194-.714-.29-1.096-.29-.381 0-.747.096-1.096.29-.35.194-.622.466-.817.816-.194.35-.291.716-.291 1.095 0 .384.098.752.296 1.105.198.354.472.625.825.815.352.19.713.285 1.083.285z" fill="none" stroke="#231f20" stroke-miterlimit="10" stroke-width=".1"/><path d="m602.53 271.68c-1.053.523-1.922.934-2.768 1.39-.19.102-.328.341-.445.545-1.321 2.293-2.233 4.741-2.645 7.382-.478 3.059 1.281 5.67 4.362 6.494 2.309.618 4.638 1.046 7.025 1.2 2.776.18 3.788 2.333 3.718 4.637-.022.694-.374 1.25-1.043 1.514-.549.218-1.104.418-1.661.613-2.431.855-3.369 3.884-1.781 5.999.563.751 1.335 1.354 2.071 1.948.953.769 1.122 1.282.607 2.428-.207.461-.437.912-.67 1.36-.603 1.16-.464 2.239.424 3.199.163.176.335.342.5.516.642.68.754 1.35.316 2.176-.179.336-.433.631-.659.94-1.386 1.899-2.785 3.787-4.156 5.697-.873 1.215-.897 2.571-.448 3.945.815 2.489.606 4.807-.978 6.933-1.604 2.153-3.104 4.397-4.825 6.445-1.813 2.157-4.208 3.481-6.889 4.231-.222.063-.439.14-.646.374.227-.023.46-.021.681-.072 4.351-1.011 7.81-3.468 10.492-7.057 1.447-1.935 2.729-4.006 4.014-6.062 1.007-1.61 1.037-3.371.508-5.177-.25-.854-.442-1.728-.615-2.602-.153-.773.037-1.493.506-2.121 1.293-1.729 2.617-3.435 3.875-5.191.425-.593.745-1.285 1.012-1.972.406-1.048.071-1.921-.734-2.662-1.268-1.168-1.396-1.909-.666-3.446.765-1.61.651-2.317-.57-3.55-1.639-1.653-1.547-4.185.387-5.455 2.237-1.469 2.621-3.627 2.41-6.003-.133-1.495-1.18-2.488-2.507-2.985-.89-.333-1.874-.466-2.827-.547-1.855-.157-3.724-.16-5.577-.336-.973-.093-1.964-.314-2.88-.664-1.597-.609-2.224-1.915-1.991-3.648.223-1.66.804-3.195 1.587-4.632.965-1.772 2.049-3.476 3.085-5.209.081-.137.182-.262.401-.575" fill="#753d6b"/><path d="m614.46 269.77c-1.053.501-1.922.895-2.768 1.331-.19.098-.328.327-.445.522-1.321 2.197-2.232 4.541-2.645 7.07-.478 2.93 1.281 5.431 4.362 6.22 2.309.592 4.638 1.001 7.026 1.149 2.775.172 3.787 2.235 3.717 4.441-.022.665-.374 1.197-1.043 1.451-.549.208-1.104.399-1.661.587-2.43.818-3.369 3.72-1.781 5.745.563.719 1.335 1.297 2.071 1.865.953.737 1.123 1.228.607 2.326-.207.441-.437.873-.67 1.303-.603 1.111-.464 2.144.424 3.064.163.168.335.327.5.493.642.652.754 1.294.316 2.084-.179.323-.433.605-.659.901-1.386 1.819-2.785 3.627-4.156 5.456-.873 1.164-.897 2.462-.448 3.779.815 2.383.606 4.603-.978 6.64-1.604 2.062-3.104 4.211-4.825 6.173-1.813 2.065-4.208 3.333-6.889 4.052-.222.059-.439.134-.646.357.228-.021.46-.019.681-.068 4.351-.968 7.81-3.322 10.492-6.759 1.447-1.854 2.729-3.837 4.014-5.806 1.007-1.542 1.037-3.228.508-4.958-.25-.818-.442-1.655-.615-2.492-.152-.741.037-1.43.506-2.031 1.293-1.657 2.617-3.291 3.875-4.973.425-.567.745-1.229 1.012-1.888.406-1.003.072-1.84-.734-2.55-1.268-1.118-1.396-1.828-.666-3.3.765-1.542.651-2.219-.57-3.4-1.639-1.583-1.547-4.008.387-5.225 2.237-1.406 2.622-3.473 2.41-5.749-.133-1.431-1.18-2.383-2.507-2.859-.89-.319-1.874-.446-2.827-.524-1.855-.15-3.723-.152-5.577-.322-.973-.089-1.964-.3-2.88-.635-1.597-.583-2.224-1.835-1.991-3.494.223-1.59.804-3.06 1.587-4.436.965-1.698 2.049-3.33 3.085-4.989.081-.131.182-.251.401-.551" fill="#a3a043"/><path d="m625.09 268.78c-.967.466-1.765.833-2.543 1.238-.174.091-.3.304-.407.485-1.214 2.043-2.051 4.224-2.43 6.576-.44 2.725 1.177 5.051 4.006 5.785 2.121.55 4.259.931 6.453 1.069 2.548.16 3.478 2.079 3.413 4.131-.019.618-.343 1.113-.957 1.349-.504.193-1.014.372-1.526.546-2.232.761-3.094 3.459-1.636 5.343.518.669 1.227 1.206 1.902 1.735.875.685 1.032 1.142.559 2.163-.191.411-.402.812-.616 1.212-.554 1.033-.426 1.994.39 2.85.149.156.307.304.458.459.59.606.693 1.203.291 1.938-.165.3-.398.562-.605.838-1.273 1.691-2.558 3.373-3.818 5.074-.801 1.083-.824 2.29-.411 3.515.749 2.216.557 4.281-.898 6.175-1.473 1.918-2.851 3.917-4.432 5.742-1.665 1.921-3.865 3.1-6.327 3.769-.203.055-.403.124-.593.332.209-.02.422-.018.625-.064 3.996-.9 7.174-3.089 9.637-6.285 1.328-1.725 2.506-3.57 3.687-5.401.924-1.434.952-3.002.466-4.611-.23-.761-.407-1.539-.565-2.318-.14-.689.034-1.33.465-1.889 1.187-1.541 2.403-3.061 3.559-4.625.39-.528.684-1.144.929-1.757.373-.932.066-1.711-.674-2.371-1.165-1.04-1.282-1.7-.612-3.07.703-1.434.598-2.063-.524-3.161-1.505-1.473-1.42-3.729.356-4.86 2.055-1.308 2.408-3.231 2.213-5.347-.122-1.331-1.083-2.216-2.302-2.659-.817-.297-1.721-.415-2.596-.487-1.704-.14-3.42-.142-5.122-.3-.894-.083-1.804-.28-2.645-.591-1.467-.542-2.043-1.706-1.829-3.25.205-1.478.738-2.846 1.457-4.125.887-1.579 1.883-3.098 2.834-4.641.075-.122.166-.233.368-.512" fill="#e4741b"/><path d="m634.15 267.78c-.967.446-1.765.798-2.543 1.186-.174.087-.3.292-.408.466-1.213 1.958-2.05 4.048-2.429 6.302-.44 2.612 1.177 4.841 4.006 5.545 2.12.527 4.259.892 6.452 1.024 2.549.153 3.479 1.992 3.414 3.959-.019.593-.343 1.067-.957 1.293-.504.185-1.015.356-1.526.523-2.232.729-3.094 3.316-1.636 5.121.518.641 1.227 1.156 1.902 1.663.875.656 1.032 1.095.558 2.073-.19.394-.401.778-.615 1.161-.554.99-.426 1.911.389 2.732.15.15.308.291.459.439.59.581.693 1.153.29 1.858-.164.287-.397.539-.604.803-1.273 1.621-2.559 3.233-3.818 4.864-.801 1.037-.824 2.194-.411 3.368.749 2.124.557 4.103-.898 5.919-1.473 1.838-2.851 3.754-4.432 5.503-1.665 1.841-3.865 2.97-6.327 3.611-.203.053-.404.12-.593.319.209-.019.422-.017.625-.061 3.996-.863 7.173-2.961 9.637-6.025 1.328-1.652 2.506-3.42 3.687-5.175.924-1.375.951-2.878.466-4.42-.23-.729-.407-1.475-.565-2.221-.14-.661.034-1.275.465-1.811 1.187-1.477 2.403-2.933 3.559-4.432.39-.506.684-1.097.929-1.684.373-.894.065-1.64-.674-2.273-1.165-.996-1.283-1.629-.612-2.942.703-1.374.598-1.977-.524-3.03-1.505-1.411-1.42-3.573.356-4.657 2.055-1.254 2.408-3.097 2.213-5.125-.122-1.276-1.083-2.124-2.302-2.548-.818-.285-1.721-.398-2.596-.467-1.704-.135-3.42-.137-5.122-.288-.895-.079-1.804-.268-2.645-.566-1.467-.52-2.043-1.635-1.829-3.115.205-1.417.738-2.727 1.457-3.954.887-1.513 1.883-2.968 2.833-4.447.076-.117.167-.224.369-.491" fill="#4d3e91"/></g></svg>